<svg width="32" height="42" viewBox="0 0 32 42" fill="none" xmlns="http://www.w3.org/2000/svg">
<path d="M6.5 41.8333V31.9375L10.3542 27.5625L9.05208 18.9166H0.25V2.24996H14.8333V0.166626H23.1667V2.24996H31.4479L27.6458 27.5625L31.5 31.9375V41.8333H6.5ZM8.42708 14.75L7.17708 6.41663H4.41667V14.75H8.42708ZM19 35.5833C19.5903 35.5833 20.0854 35.3833 20.4854 34.9833C20.8854 34.5833 21.0847 34.0889 21.0833 33.5C21.0819 32.9111 20.8819 32.4166 20.4833 32.0166C20.0847 31.6166 19.5903 31.4166 19 31.4166C18.4097 31.4166 17.9153 31.6166 17.5167 32.0166C17.1181 32.4166 16.9181 32.9111 16.9167 33.5C16.9153 34.0889 17.1153 34.584 17.5167 34.9854C17.9181 35.3868 18.4125 35.5861 19 35.5833ZM14.2083 25.1666H23.7917L26.6042 6.41663H11.3958L14.2083 25.1666Z" fill="#28221E"/>
</svg>
