<svg width="38" height="40" viewBox="0 0 38 40" fill="none" xmlns="http://www.w3.org/2000/svg">
<path d="M29.1667 4.33338L33.6458 8.70838L22.125 17.875L20.0417 15.7917L29.1458 4.33338H29.1667ZM29.1667 0.166717C28.551 0.162649 27.9421 0.295058 27.3838 0.554421C26.8254 0.813784 26.3315 1.19366 25.9375 1.66672L14.4167 16.1042L21.7917 23.4792L36.25 11.9792C38.125 10.3959 38.2708 7.54172 36.5208 5.79172L32.125 1.39588C31.2917 0.56255 30.2292 0.166717 29.1667 0.166717ZM12.9583 17.5834L11.4792 19.0625C11.0886 19.46 10.8697 19.9949 10.8697 20.5521C10.8697 21.1094 11.0886 21.6443 11.4792 22.0417L15.875 26.4167C16.3125 26.8334 16.8333 27.0209 17.375 27.0209C17.9167 27.0209 18.4375 26.8334 18.8542 26.4167L20.3125 24.9584L12.9583 17.5834ZM6.5 27.25C5.35417 27.25 4.41667 28.1875 4.41667 29.3334C4.41667 30.4792 5.35417 31.4167 6.5 31.4167C7.64583 31.4167 8.58333 30.4792 8.58333 29.3334C8.58333 28.1875 7.64583 27.25 6.5 27.25ZM12.75 29.3334C11.6042 29.3334 10.6667 30.2709 10.6667 31.4167C10.6667 32.5625 11.6042 33.5 12.75 33.5C13.8958 33.5 14.8333 32.5625 14.8333 31.4167C14.8333 30.2709 13.8958 29.3334 12.75 29.3334ZM2.33333 33.5C1.1875 33.5 0.25 34.4375 0.25 35.5834C0.25 36.7292 1.1875 37.6667 2.33333 37.6667C3.47917 37.6667 4.41667 36.7292 4.41667 35.5834C4.41667 34.4375 3.47917 33.5 2.33333 33.5ZM8.58333 35.5834C7.4375 35.5834 6.5 36.5209 6.5 37.6667C6.5 38.8125 7.4375 39.75 8.58333 39.75C9.72917 39.75 10.6667 38.8125 10.6667 37.6667C10.6667 36.5209 9.72917 35.5834 8.58333 35.5834Z" fill="#28221E"/>
</svg>
