<svg width="46" height="44" viewBox="0 0 46 44" fill="none" xmlns="http://www.w3.org/2000/svg">
<path d="M17.7915 4.25004C7.99985 4.25004 0.0831837 9.87504 0.0831837 16.75C0.0831837 19.25 1.12485 21.5417 2.99985 23.625C1.12485 26.125 0.0519337 29.25 0.0831837 32.375V39.6667C0.0831837 41.9584 1.95818 43.8334 4.24985 43.8334H31.3332C33.6457 43.8334 35.4998 41.9792 35.4998 39.6667V32.375C35.4998 29.875 34.8748 27.375 33.4165 25.0834L37.5832 20.9167L31.3332 14.6667L26.9582 19.0417C23.9653 17.4122 20.5917 16.611 17.1857 16.7209C13.7798 16.8307 10.4648 17.8477 7.58318 19.6667C6.79152 18.8959 6.33318 17.8542 6.33318 16.75C6.33318 13 11.5415 9.87504 17.7915 9.87504C20.7082 9.87504 23.6248 10.7084 25.7082 11.9584L29.8748 7.79171C26.3059 5.39929 22.0873 4.1628 17.7915 4.25004ZM17.7915 20.9167C25.0832 20.9167 31.3332 27.1667 31.3332 32.375V39.6667H4.24985V32.375C4.24985 27.1667 10.4998 20.9167 17.7915 20.9167ZM45.9165 13.2084C45.9165 16.6042 43.6457 20.0834 40.4582 20.8542L39.0623 19.4375L37.5832 18H39.1457C41.229 18 42.7915 15.125 42.7915 13C42.7915 10.875 41.0207 8.70837 38.9373 8.70837V5.58337C42.7915 5.58337 45.9165 9.35421 45.9165 13.2084ZM34.7707 12.0209C33.479 10.75 32.6873 9.00004 32.6873 7.06254C32.6873 3.20837 35.8123 0.083374 39.6665 0.083374V3.20837C37.5832 3.20837 35.8123 4.93754 35.8123 7.06254C35.8123 9.18754 37.5832 10.9167 39.6665 10.9167V14.0417C37.9582 14.0417 36.3749 14.5625 35.0624 15.4584L32.8332 13.2292C33.4165 12.7709 34.0832 12.3542 34.7707 12.0209Z" fill="#28221E"/>
</svg>
