<svg width="44" height="44" viewBox="0 0 44 44" fill="none" xmlns="http://www.w3.org/2000/svg">
<path d="M38.9101 5.08982C35.4492 1.63083 30.3984 0.248021 24.6972 1.19919C19.2793 2.10154 13.8652 5.03122 9.44724 9.44724C5.02927 13.8633 2.10154 19.2793 1.19919 24.6972C0.248021 30.4023 1.63083 35.4492 5.08982 38.9101C7.83591 41.6562 11.584 43.0937 15.8672 43.0937C17.0184 43.0905 18.1675 42.9925 19.3027 42.8008C24.7207 41.8984 30.1347 38.9687 34.5527 34.5527C38.9707 30.1367 41.8984 24.7207 42.8008 19.3027C43.7519 13.6015 42.3691 8.55076 38.9101 5.08982ZM5.82224 25.4668C6.56443 21.0058 9.02927 16.4941 12.7617 12.7715C16.4941 9.0488 21.0058 6.57029 25.4668 5.82224C26.3392 5.67324 27.2224 5.59681 28.1074 5.59372C29.3131 5.58503 30.5135 5.75417 31.6699 6.09568C30.0753 6.81089 28.574 7.71798 27.1992 8.79685C23.2929 11.8769 20.7773 16.164 19.7031 21.541C17.9551 30.2773 11.832 33.4746 7.58005 34.6445C5.83786 32.3183 5.21482 29.1113 5.82224 25.4668ZM38.1777 18.5332C37.4355 22.9941 34.9707 27.5058 31.2383 31.2383C27.5058 34.9707 22.9941 37.4297 18.5332 38.1777C16.2578 38.5566 14.1582 38.4531 12.332 37.9004C13.9255 37.1871 15.4257 36.2813 16.7988 35.2031C20.7051 32.123 23.2226 27.8359 24.2968 22.459C26.0547 13.7226 32.1679 10.5254 36.4199 9.35544C38.1621 11.6816 38.7851 14.8886 38.1777 18.5332Z" fill="#28221E"/>
</svg>
