<svg width="50" height="32" viewBox="0 0 50 32" fill="none" xmlns="http://www.w3.org/2000/svg">
<path d="M1.22315 14.2929L4.88614 12.1352C5.63881 11.6836 6.56711 11.6836 7.29469 12.1352L10.9577 14.2929C11.9863 14.9201 11.9863 16.4254 10.9577 17.0276L7.29469 19.1852C6.93214 19.407 6.5154 19.5243 6.09042 19.5243C5.66543 19.5243 5.2487 19.407 4.88614 19.1852L1.22315 17.0276C0.194498 16.4004 0.194498 14.895 1.22315 14.2929ZM42.5949 11.3825L38.9319 13.5402C37.9033 14.1423 37.9033 15.6477 38.9319 16.2749L42.5949 18.4577C43.3476 18.9093 44.2759 18.9093 45.0035 18.4577L48.6665 16.3C49.6951 15.6979 49.6951 14.1925 48.6665 13.5653L45.0035 11.4076C44.6453 11.1765 44.2291 11.0516 43.8028 11.0471C43.3766 11.0427 42.9579 11.159 42.5949 11.3825Z" fill="#28221E"/>
<path d="M23.8536 0.335547L20.1906 2.4932C19.162 3.09534 19.162 4.60068 20.1906 5.22791L23.8536 7.41065C24.6063 7.86226 25.5346 7.86226 26.2621 7.41065L29.9251 5.253C30.9538 4.65086 30.9538 3.14552 29.9251 2.51829L26.2621 0.360637C25.904 0.129551 25.4877 0.00456234 25.0615 0.000122539C24.6353 -0.00431727 24.2165 0.111972 23.8536 0.335547Z" fill="#28221E"/>
<path d="M24.423 11.5002L20.76 13.6578C19.7314 14.26 19.7314 15.7653 20.76 16.3925L24.423 18.5753C25.1757 19.0269 26.104 19.0269 26.8316 18.5753L30.4946 16.4176C31.5232 15.8155 31.5232 14.3101 30.4946 13.6829L26.8316 11.5253C26.4734 11.2942 26.0572 11.1692 25.6309 11.1647C25.2047 11.1603 24.7859 11.2766 24.423 11.5002Z" fill="#28221E"/>
<path d="M24.423 23.8031L20.76 25.9607C19.7314 26.5628 19.7314 28.0682 20.76 28.6954L24.423 30.8782C25.1757 31.3298 26.104 31.3298 26.8316 30.8782L30.4946 28.7205C31.5232 28.1184 31.5232 26.613 30.4946 25.9858L26.8316 23.8281C26.4734 23.5971 26.0572 23.4721 25.6309 23.4676C25.2047 23.4632 24.7859 23.5795 24.423 23.8031Z" fill="#28221E"/>
<path d="M33.5881 6.27238L29.9251 8.43004C28.8965 9.03217 28.8965 10.5375 29.9251 11.1647L33.5881 13.3475C34.3408 13.7991 35.2691 13.7991 35.9967 13.3475L39.6597 11.1898C40.6883 10.5877 40.6883 9.08235 39.6597 8.45512L35.9967 6.29747C35.6385 6.06638 35.2223 5.94139 34.796 5.93695C34.3698 5.93252 33.951 6.04881 33.5881 6.27238Z" fill="#28221E"/>
<path d="M33.5881 16.9696L29.9251 19.1272C28.8965 19.7294 28.8965 21.2347 29.9251 21.8619L33.5881 24.0447C34.3408 24.4963 35.2691 24.4963 35.9967 24.0447L39.6597 21.887C40.6883 21.2849 40.6883 19.7795 39.6597 19.1523L35.9967 16.9947C35.6385 16.7636 35.2223 16.6386 34.796 16.6341C34.3698 16.6297 33.951 16.746 33.5881 16.9696Z" fill="#28221E"/>
<path d="M14.6885 17.644L11.0255 19.8017C9.99684 20.4038 9.99684 21.9091 11.0255 22.5364L14.6885 24.7191C15.4412 25.1707 16.3695 25.1707 17.097 24.7191L20.76 22.5615C21.7887 21.9593 21.7887 20.454 20.76 19.8268L17.097 17.6691C16.7389 17.438 16.3226 17.313 15.8964 17.3086C15.4702 17.3041 15.0514 17.4204 14.6885 17.644Z" fill="#28221E"/>
<path d="M14.1191 5.56333L10.4561 7.72098C9.42741 8.32312 9.42741 9.82847 10.4561 10.4557L14.1191 12.6384C14.8717 13.09 15.8 13.09 16.5276 12.6384L20.1906 10.4808C21.2192 9.87864 21.2192 8.3733 20.1906 7.74608L16.5276 5.58842C16.1694 5.35733 15.7532 5.23235 15.327 5.22791C14.9007 5.22347 14.482 5.33976 14.1191 5.56333Z" fill="#28221E"/>
</svg>
