<svg width="39" height="40" viewBox="0 0 39 40" fill="none" xmlns="http://www.w3.org/2000/svg">
<path d="M4.91667 0.166626H9.08333V6.41663H4.91667V0.166626ZM13.25 0.166626H17.4167V6.41663H13.25V0.166626ZM21.5833 0.166626H25.75V6.41663H21.5833V0.166626ZM34.0833 14.75H29.9167V10.5833H0.75V33.5C0.75 36.9458 3.55417 39.75 7 39.75H23.6667C27.1125 39.75 29.9167 36.9458 29.9167 33.5H34.0833C36.3812 33.5 38.25 31.6312 38.25 29.3333V18.9166C38.25 16.6187 36.3812 14.75 34.0833 14.75ZM25.75 33.5C25.75 34.0525 25.5305 34.5824 25.1398 34.9731C24.7491 35.3638 24.2192 35.5833 23.6667 35.5833H7C6.44747 35.5833 5.91756 35.3638 5.52686 34.9731C5.13616 34.5824 4.91667 34.0525 4.91667 33.5V14.75H25.75V33.5ZM29.9167 29.3333V18.9166H34.0833L34.0875 29.3333H29.9167Z" fill="#28221E"/>
</svg>
