<svg width="50" height="50" viewBox="0 0 50 50" fill="none" xmlns="http://www.w3.org/2000/svg">
<path d="M27.0835 4.16663H31.2502C41.6668 4.16663 45.8335 8.33329 45.8335 18.75V31.25C45.8335 41.6666 41.6668 45.8333 31.2502 45.8333H18.7502C8.3335 45.8333 4.16683 41.6666 4.16683 31.25V27.0833" stroke="white" stroke-width="3" stroke-linecap="round" stroke-linejoin="round"/>
<path d="M16.5831 6.2917L32.9998 22.7084C33.6248 23.3334 34.2498 24.5625 34.3748 25.4584L35.2706 31.7292C35.6039 34 33.9998 35.5834 31.7289 35.2709L25.4581 34.375C24.5831 34.25 23.3539 33.625 22.7081 33L6.29143 16.5834C3.4581 13.75 2.12476 10.4584 6.29143 6.2917C10.4581 2.12504 13.7498 3.45837 16.5831 6.2917Z" stroke="white" stroke-width="3" stroke-miterlimit="10" stroke-linecap="round" stroke-linejoin="round"/>
<path d="M18.9375 8.64587C17.5417 13.625 13.6458 17.5209 8.64583 18.9375" stroke="white" stroke-width="3" stroke-miterlimit="10" stroke-linecap="round" stroke-linejoin="round"/>
</svg>
