<svg width="50" height="50" viewBox="0 0 50 50" fill="none" xmlns="http://www.w3.org/2000/svg">
<path d="M45.6877 14.0833L38.6669 42.2709C38.1669 44.375 36.2919 45.8333 34.1252 45.8333H6.75019C3.60435 45.8333 1.35439 42.7498 2.29189 39.729L11.0627 11.5626C11.6669 9.60423 13.4794 8.24988 15.5211 8.24988H41.146C43.1252 8.24988 44.7711 9.45822 45.4586 11.1249C45.8544 12.0207 45.9377 13.0416 45.6877 14.0833Z" stroke="white" stroke-width="3" stroke-miterlimit="10"/>
<path d="M33.3335 45.8333H43.2918C45.9793 45.8333 48.0835 43.5625 47.896 40.875L45.8335 12.5" stroke="white" stroke-width="3" stroke-miterlimit="10" stroke-linecap="round" stroke-linejoin="round"/>
<path d="M20.1665 13.2916L22.3332 4.29175" stroke="white" stroke-width="3" stroke-miterlimit="10" stroke-linecap="round" stroke-linejoin="round"/>
<path d="M34.125 13.3126L36.0833 4.271" stroke="white" stroke-width="3" stroke-miterlimit="10" stroke-linecap="round" stroke-linejoin="round"/>
<path d="M16.0415 25H32.7082" stroke="white" stroke-width="3" stroke-miterlimit="10" stroke-linecap="round" stroke-linejoin="round"/>
<path d="M13.9585 33.3334H30.6252" stroke="white" stroke-width="3" stroke-miterlimit="10" stroke-linecap="round" stroke-linejoin="round"/>
</svg>
