<svg width="30" height="46" viewBox="0 0 30 46" fill="none" xmlns="http://www.w3.org/2000/svg">
<path fill-rule="evenodd" clip-rule="evenodd" d="M0.416504 8.41671C0.416504 6.20657 1.29448 4.08695 2.85728 2.52415C4.42008 0.961348 6.5397 0.083374 8.74984 0.083374H21.2498C23.46 0.083374 25.5796 0.961348 27.1424 2.52415C28.7052 4.08695 29.5832 6.20657 29.5832 8.41671V41.75H21.5498L23.0957 45.9167H18.929L17.3832 41.75H13.2165L14.7623 45.9167H10.5957L9.04984 41.75H0.416504V8.41671ZM8.74984 4.25004H21.2498C22.3549 4.25004 23.4147 4.68903 24.1961 5.47043C24.9775 6.25183 25.4165 7.31164 25.4165 8.41671V12.5834H4.58317V8.41671C4.58317 7.31164 5.02216 6.25183 5.80356 5.47043C6.58496 4.68903 7.64477 4.25004 8.74984 4.25004ZM4.58317 16.75H25.4165V37.5834H4.58317V16.75Z" fill="#28221E"/>
</svg>
