<svg width="42" height="42" viewBox="0 0 42 42" fill="none" xmlns="http://www.w3.org/2000/svg">
<path d="M28.2915 0.166628C29.3661 0.166514 30.4276 0.403959 31.3998 0.86197C32.372 1.31998 33.2309 1.98723 33.9151 2.81597C34.5994 3.64471 35.0919 4.61445 35.3576 5.65579C35.6233 6.69712 35.6555 7.78431 35.4519 8.83954L35.4206 8.97704C37.2331 9.58164 38.8177 10.7254 39.9624 12.2552C41.107 13.785 41.7572 15.6279 41.8259 17.5373C41.8945 19.4467 41.3784 21.3315 40.3465 22.9396C39.3146 24.5476 37.8162 25.8022 36.0519 26.5354L33.7894 40.0916C33.7085 40.5781 33.4577 41.0201 33.0815 41.339C32.7054 41.6579 32.2283 41.8331 31.7352 41.8333H10.2644C9.77124 41.8331 9.29417 41.6579 8.91803 41.339C8.5419 41.0201 8.29108 40.5781 8.21021 40.0916L6.06646 27.2375C4.62464 27.1557 3.25563 26.5771 2.19214 25.6001C1.12865 24.6231 0.436303 23.308 0.232792 21.8783C0.0292819 20.4485 0.327163 18.9924 1.0758 17.7575C1.82444 16.5226 2.97764 15.585 4.33938 15.1041L4.33313 14.75C4.33271 12.6405 4.86616 10.5652 5.88377 8.71745C6.90139 6.86967 8.37008 5.30947 10.1531 4.18216C11.936 3.05485 13.9753 2.3971 16.081 2.27017C18.1866 2.14324 20.2901 2.55125 22.1956 3.45621C22.8587 2.44493 23.7632 1.61467 24.8274 1.04036C25.8917 0.466057 27.0822 0.165779 28.2915 0.166628ZM14.7498 27.25H10.2915L12.029 37.6666H14.7498V27.25ZM23.0831 27.25H18.9165V37.6666H23.0831V27.25ZM31.706 27.25H27.2498V37.6666H29.9685L31.706 27.25ZM16.8331 6.41663C12.3706 6.41663 8.72688 9.92496 8.51021 14.2645L8.49979 14.675L8.50604 15.0291C8.52077 15.8472 8.29431 16.6515 7.85492 17.3417C7.41552 18.0319 6.78264 18.5775 6.03521 18.9104L5.72271 19.0333C5.26011 19.198 4.87048 19.5207 4.62244 19.9445C4.3744 20.3683 4.28385 20.866 4.36676 21.35C4.44967 21.834 4.70071 22.2732 5.07565 22.5903C5.45061 22.9073 5.92542 23.0819 6.41646 23.0833H32.4581C33.2282 23.0833 33.9887 22.9125 34.6848 22.5833C35.3809 22.2541 35.9954 21.7746 36.4839 21.1794C36.9725 20.5842 37.323 19.888 37.5102 19.1411C37.6974 18.3941 37.7166 17.6149 37.5665 16.8597C37.4164 16.1044 37.1007 15.3918 36.6421 14.7732C36.1835 14.1546 35.5934 13.6454 34.9144 13.2822C34.2353 12.919 33.4842 12.711 32.7151 12.673C31.946 12.635 31.178 12.768 30.4665 13.0625L30.1019 13.2312C29.1406 13.7266 28.0243 13.8288 26.989 13.5162C25.9537 13.2036 25.0805 12.5008 24.554 11.5562L24.4081 11.2708C23.7423 9.82169 22.6747 8.59406 21.332 7.73363C19.9893 6.8732 18.4279 6.41611 16.8331 6.41663ZM28.2915 4.33329C27.7514 4.33318 27.2205 4.47303 26.7506 4.7392C26.2807 5.00538 25.8878 5.38879 25.6102 5.85204C26.686 6.91117 27.5612 8.15623 28.1935 9.52704C29.1364 9.04255 30.1553 8.72334 31.206 8.58329C31.3887 8.10994 31.4533 7.59922 31.3944 7.09528C31.3355 6.59134 31.1547 6.10933 30.8678 5.6909C30.5808 5.27246 30.1963 4.93019 29.7474 4.69366C29.2985 4.45712 28.7988 4.33344 28.2915 4.33329Z" fill="#28221E"/>
</svg>
